<svg width="98" height="68" viewBox="0 0 98 68" fill="none" xmlns="http://www.w3.org/2000/svg">
<mask id="mask0_16_5046" style="mask-type:alpha" maskUnits="userSpaceOnUse" x="0" y="0" width="98" height="68">
<path d="M0.0227051 36.772C0.0227051 19.678 0.0227051 11.131 5.33312 5.82061C10.6435 0.510193 19.1905 0.510193 36.2845 0.510193H61.6678C78.7618 0.510193 87.3087 0.510193 92.6192 5.82061C97.9296 11.131 97.9296 19.678 97.9296 36.772V50.3702C97.9296 58.6323 97.9296 62.7633 95.3629 65.33C92.7962 67.8967 88.6651 67.8967 80.403 67.8967H17.5492C9.28715 67.8967 5.15611 67.8967 2.58941 65.33C0.0227051 62.7633 0.0227051 58.6323 0.0227051 50.3702V36.772Z" fill="#C4C4C4"/>
</mask>
<g mask="url(#mask0_16_5046)">
<path d="M-111.723 65.0837C-92.6285 42.3421 -41.9295 4.08197 8.11273 32.9739C58.155 61.8658 101.759 25.5066 117.306 3.71548C134.029 -17.0061 179.001 -51.7935 225.112 -25.171" stroke="#009735" stroke-width="21.1527" stroke-linecap="round" stroke-linejoin="round"/>
<path d="M-118.241 47.3634C-99.1232 24.594 -48.362 -13.713 1.74155 15.2143C51.8451 44.1416 95.5031 7.73781 111.069 -14.08C127.812 -34.8269 172.839 -69.657 219.007 -43.0018" stroke="#F6D900" stroke-width="21.1527" stroke-linecap="round" stroke-linejoin="round"/>
<path d="M-118.699 32.4438C-99.6046 9.70223 -48.9056 -28.5579 1.13665 0.33397C51.1789 29.2259 94.7834 -7.13333 110.33 -28.9244C127.052 -49.646 172.025 -84.4334 218.136 -57.8109" stroke="#002173" stroke-width="21.1527" stroke-linecap="round" stroke-linejoin="round"/>
</g>
</svg>
