<svg class="animated" id="freepik_stories-scrum-method" xmlns="http://www.w3.org/2000/svg" viewBox="0 0 750 500" version="1.1" xmlns:xlink="http://www.w3.org/1999/xlink" xmlns:svgjs="http://svgjs.com/svgjs"><style>svg#freepik_stories-scrum-method:not(.animated) .animable {opacity: 0;}svg#freepik_stories-scrum-method.animated #freepik--background-complete--inject-28 {animation: 1s 1 forwards cubic-bezier(.36,-0.01,.5,1.38) zoomOut;animation-delay: 0s;}svg#freepik_stories-scrum-method.animated #freepik--Shadow--inject-28 {animation: 1s 1 forwards cubic-bezier(.36,-0.01,.5,1.38) zoomIn;animation-delay: 0s;}svg#freepik_stories-scrum-method.animated #freepik--Chart--inject-28 {animation: 1s 1 forwards cubic-bezier(.36,-0.01,.5,1.38) lightSpeedLeft;animation-delay: 0s;}svg#freepik_stories-scrum-method.animated #freepik--Box--inject-28 {animation: 1s 1 forwards cubic-bezier(.36,-0.01,.5,1.38) zoomOut;animation-delay: 0s;}svg#freepik_stories-scrum-method.animated #freepik--Arrow--inject-28 {animation: 1s 1 forwards cubic-bezier(.36,-0.01,.5,1.38) lightSpeedRight;animation-delay: 0s;}svg#freepik_stories-scrum-method.animated #freepik--Clock--inject-28 {animation: 1s 1 forwards cubic-bezier(.36,-0.01,.5,1.38) zoomIn;animation-delay: 0s;}svg#freepik_stories-scrum-method.animated #freepik--character-1--inject-28 {animation: 1s 1 forwards cubic-bezier(.36,-0.01,.5,1.38) fadeIn;animation-delay: 0s;}svg#freepik_stories-scrum-method.animated #freepik--light-bulb--inject-28 {animation: 1s 1 forwards cubic-bezier(.36,-0.01,.5,1.38) slideDown;animation-delay: 0s;}svg#freepik_stories-scrum-method.animated #freepik--character-2--inject-28 {animation: 1s 1 forwards cubic-bezier(.36,-0.01,.5,1.38) slideRight;animation-delay: 0s;}            @keyframes zoomOut {                0% {                    opacity: 0;                    transform: scale(1.5);                }                100% {                    opacity: 1;                    transform: scale(1);                }            }                    @keyframes zoomIn {                0% {                    opacity: 0;                    transform: scale(0.5);                }                100% {                    opacity: 1;                    transform: scale(1);                }            }                    @keyframes lightSpeedLeft {              from {                transform: translate3d(-50%, 0, 0) skewX(20deg);                opacity: 0;              }              60% {                transform: skewX(-10deg);                opacity: 1;              }              80% {                transform: skewX(2deg);              }              to {                opacity: 1;                transform: translate3d(0, 0, 0);              }            }                    @keyframes lightSpeedRight {              from {                transform: translate3d(50%, 0, 0) skewX(-20deg);                opacity: 0;              }              60% {                transform: skewX(10deg);                opacity: 1;              }              80% {                transform: skewX(-2deg);              }              to {                opacity: 1;                transform: translate3d(0, 0, 0);              }            }                    @keyframes fadeIn {                0% {                    opacity: 0;                }                100% {                    opacity: 1;                }            }                    @keyframes slideDown {                0% {                    opacity: 0;                    transform: translateY(-30px);                }                100% {                    opacity: 1;                    transform: translateY(0);                }            }                    @keyframes slideRight {                0% {                    opacity: 0;                    transform: translateX(30px);                }                100% {                    opacity: 1;                    transform: translateX(0);                }            }        </style><g id="freepik--background-complete--inject-28" class="animable" style="transform-origin: 375px 227.375px;"><path d="M291.7,185.64a63.27,63.27,0,0,0-9.05,21.91l-12.24,1.16v23.7l12.24,1.15a63.24,63.24,0,0,0,9.05,21.92l-7.82,9.44,16.76,16.76,9.44-7.81a63.37,63.37,0,0,0,21.92,9l1.15,12.24h23.71L358,282.91a63.57,63.57,0,0,0,21.92-9l9.44,7.81,16.76-16.76-7.82-9.44a63.24,63.24,0,0,0,9.05-21.92l12.24-1.15v-23.7l-12.24-1.16a63.27,63.27,0,0,0-9.05-21.91l7.82-9.45-16.76-16.76-9.44,7.82A63.59,63.59,0,0,0,358,158.2L356.86,146H333.15L332,158.21a63.37,63.37,0,0,0-21.92,9l-9.44-7.82-16.76,16.76Zm76,12.23a32.09,32.09,0,1,1-45.38,0A32.1,32.1,0,0,1,367.7,197.87Z" style="fill: rgb(224, 224, 224); transform-origin: 345px 220.555px;" id="elkieem1iztk" class="animable"></path><path d="M183.55,144.19a35.88,35.88,0,0,0-5.09,12.34l-6.88.65v13.34l6.88.65a35.75,35.75,0,0,0,5.09,12.33l-4.39,5.32,9.43,9.43,5.31-4.4a35.61,35.61,0,0,0,12.34,5.09l.65,6.89h13.34l.65-6.89a35.64,35.64,0,0,0,12.33-5.09l5.31,4.4,9.44-9.43-4.4-5.32a35.56,35.56,0,0,0,5.09-12.33l6.89-.65V157.18l-6.89-.65a35.75,35.75,0,0,0-5.09-12.33l4.4-5.32-9.44-9.43-5.31,4.4a35.45,35.45,0,0,0-12.33-5.09l-.65-6.89H206.89l-.65,6.89a35.42,35.42,0,0,0-12.34,5.09l-5.31-4.4-9.43,9.43Zm42.78,6.89a18.06,18.06,0,1,1-25.54,0A18.06,18.06,0,0,1,226.33,151.08Z" style="fill: rgb(224, 224, 224); transform-origin: 213.56px 163.85px;" id="el1lv7g99mrkj" class="animable"></path><path d="M219.54,86.22A17.85,17.85,0,0,0,217,92.39l-3.44.32v6.67l3.44.32a17.93,17.93,0,0,0,2.54,6.17l-2.2,2.65,4.72,4.72,2.66-2.2a17.8,17.8,0,0,0,6.16,2.54l.32,3.45h6.67l.33-3.45a17.88,17.88,0,0,0,6.16-2.54l2.66,2.2,4.71-4.72-2.2-2.65a17.76,17.76,0,0,0,2.55-6.17l3.44-.32V92.71l-3.44-.32a17.68,17.68,0,0,0-2.55-6.17l2.2-2.65L247,78.85l-2.66,2.2a17.69,17.69,0,0,0-6.16-2.54l-.33-3.45H231.2l-.32,3.45a17.61,17.61,0,0,0-6.16,2.54l-2.66-2.2-4.72,4.72Zm21.38,3.44a9,9,0,1,1-12.76,0A9,9,0,0,1,240.92,89.66Z" style="fill: rgb(224, 224, 224); transform-origin: 234.54px 96.045px;" id="elvj84or3ghha" class="animable"></path><g id="el8ihxl30n27t"><rect x="112.31" y="221.81" width="50.87" height="65.36" rx="3.51" style="fill: rgb(230, 230, 230); transform-origin: 137.745px 254.49px; transform: rotate(-11.13deg);" class="animable"></rect></g><g id="el27yxnrorctp"><rect x="118.58" y="236.36" width="32.05" height="4.34" rx="1.77" style="fill: rgb(240, 240, 240); transform-origin: 134.605px 238.53px; transform: rotate(-11.13deg);" class="animable"></rect></g><g id="el8tgruyeq3a3"><rect x="120.72" y="247.25" width="32.05" height="4.34" rx="1.77" style="fill: rgb(240, 240, 240); transform-origin: 136.745px 249.42px; transform: rotate(-11.13deg);" class="animable"></rect></g><g id="elx2n4yt0726"><rect x="122.87" y="258.15" width="32.05" height="4.34" rx="1.77" style="fill: rgb(240, 240, 240); transform-origin: 138.895px 260.32px; transform: rotate(-11.13deg);" class="animable"></rect></g><g id="elsuk6pnzothr"><rect x="125.15" y="270.5" width="16.89" height="4.34" rx="1.77" style="fill: rgb(240, 240, 240); transform-origin: 133.595px 272.67px; transform: rotate(-11.13deg);" class="animable"></rect></g><g id="elhsjbcy3x0k6"><rect x="179.23" y="294.21" width="34.45" height="44.26" rx="3.51" style="fill: rgb(230, 230, 230); transform-origin: 196.455px 316.34px; transform: rotate(6.81deg);" class="animable"></rect></g><path d="M206.9,308l-18.63-2.23a1.46,1.46,0,0,1-1.28-1.63h0a1.47,1.47,0,0,1,1.63-1.29l18.63,2.23a1.46,1.46,0,0,1,1.28,1.63h0A1.47,1.47,0,0,1,206.9,308Z" style="fill: rgb(240, 240, 240); transform-origin: 197.76px 305.425px;" id="el0ghnfxjik39" class="animable"></path><path d="M206,315.43l-18.63-2.22a1.47,1.47,0,0,1-1.28-1.64h0a1.46,1.46,0,0,1,1.63-1.28l18.63,2.22a1.47,1.47,0,0,1,1.28,1.64h0A1.46,1.46,0,0,1,206,315.43Z" style="fill: rgb(240, 240, 240); transform-origin: 196.86px 312.86px;" id="elkgsekis3j1d" class="animable"></path><path d="M205.12,322.9l-18.63-2.23a1.45,1.45,0,0,1-1.28-1.63h0a1.47,1.47,0,0,1,1.63-1.29L205.47,320a1.47,1.47,0,0,1,1.28,1.63h0A1.47,1.47,0,0,1,205.12,322.9Z" style="fill: rgb(240, 240, 240); transform-origin: 195.979px 320.325px;" id="elthf6d222qb" class="animable"></path><path d="M194,329.15l-8.43-1a1.48,1.48,0,0,1-1.29-1.63h0a1.47,1.47,0,0,1,1.64-1.29l8.43,1a1.47,1.47,0,0,1,1.29,1.63h0A1.48,1.48,0,0,1,194,329.15Z" style="fill: rgb(240, 240, 240); transform-origin: 189.961px 327.189px;" id="elqdh49sfyjo" class="animable"></path><g id="elpfuahh6hr8"><rect x="630.74" y="167.47" width="41.46" height="53.27" rx="3.51" style="fill: rgb(230, 230, 230); transform-origin: 651.47px 194.105px; transform: rotate(20.78deg);" class="animable"></rect></g><g id="el75glsbisiwg"><rect x="643.12" y="179.94" width="26.12" height="3.54" rx="1.47" style="fill: rgb(240, 240, 240); transform-origin: 656.18px 181.71px; transform: rotate(20.78deg);" class="animable"></rect></g><g id="elvh7s4hb5a2c"><rect x="639.91" y="188.4" width="26.12" height="3.54" rx="1.47" style="fill: rgb(240, 240, 240); transform-origin: 652.97px 190.17px; transform: rotate(20.78deg);" class="animable"></rect></g><g id="el4xcvlyakxwk"><rect x="636.7" y="196.86" width="26.12" height="3.54" rx="1.47" style="fill: rgb(240, 240, 240); transform-origin: 649.76px 198.63px; transform: rotate(20.78deg);" class="animable"></rect></g><g id="els5mx3p90zni"><rect x="633.89" y="203.13" width="13.76" height="3.54" rx="1.47" style="fill: rgb(240, 240, 240); transform-origin: 640.77px 204.9px; transform: rotate(20.78deg);" class="animable"></rect></g><rect x="386.03" y="67.35" width="13.29" height="15.72" rx="1.57" style="fill: rgb(224, 224, 224); transform-origin: 392.675px 75.21px;" id="elvig3284fgwe" class="animable"></rect><rect x="406.02" y="55.12" width="13.29" height="27.95" rx="1.57" style="fill: rgb(224, 224, 224); transform-origin: 412.665px 69.095px;" id="el8akamtgl4bm" class="animable"></rect><rect x="427.53" y="43.04" width="13.29" height="40.38" rx="1.57" style="fill: rgb(224, 224, 224); transform-origin: 434.175px 63.23px;" id="elv0y3a0c115" class="animable"></rect><path d="M476.6,274.4a34.24,34.24,0,0,0-4.9,11.87l-6.63.62v12.84l6.63.62a34.24,34.24,0,0,0,4.9,11.87l-4.24,5.12,9.08,9.07,5.11-4.23a34.51,34.51,0,0,0,11.87,4.9l.63,6.63h12.83l.63-6.62a34.51,34.51,0,0,0,11.87-4.9l5.11,4.23,9.08-9.07-4.23-5.12a34.22,34.22,0,0,0,4.89-11.87l6.63-.62V286.89l-6.63-.62a34,34,0,0,0-4.9-11.87l4.24-5.11-9.08-9.08-5.11,4.23a34.51,34.51,0,0,0-11.87-4.9l-.63-6.63H499.05l-.63,6.62a34.38,34.38,0,0,0-11.86,4.9l-5.12-4.23-9.08,9.07ZM517.75,281a17.38,17.38,0,1,1-24.57,0A17.38,17.38,0,0,1,517.75,281Z" style="fill: rgb(224, 224, 224); transform-origin: 505.465px 293.31px;" id="el0fan4xvfn11f" class="animable"></path><path d="M556.07,304.78a16.1,16.1,0,0,0-2.31,5.6l-3.13.29v6.06l3.13.29a16.1,16.1,0,0,0,2.31,5.6l-2,2.42,4.28,4.28,2.42-2a15.92,15.92,0,0,0,5.6,2.31l.29,3.13h6.06l.29-3.13a15.92,15.92,0,0,0,5.6-2.31l2.42,2,4.28-4.28-2-2.42a15.92,15.92,0,0,0,2.31-5.6l3.13-.29v-6.06l-3.13-.29a15.92,15.92,0,0,0-2.31-5.6l2-2.42L581,298.08l-2.42,2a16.1,16.1,0,0,0-5.6-2.31l-.29-3.13h-6.06l-.29,3.13a16.1,16.1,0,0,0-5.6,2.31l-2.42-2-4.28,4.28Zm19.42,3.12a8.2,8.2,0,1,1-11.6,0A8.21,8.21,0,0,1,575.49,307.9Z" style="fill: rgb(224, 224, 224); transform-origin: 569.69px 313.7px;" id="elvrf5tioyu3k" class="animable"></path><path d="M502.21,212.6a16.26,16.26,0,0,0-2.31,5.6l-3.13.3v6.06l3.13.29a16.18,16.18,0,0,0,2.31,5.6l-2,2.41,4.28,4.29,2.42-2a16.1,16.1,0,0,0,5.6,2.31l.29,3.13h6.06l.29-3.13a16.1,16.1,0,0,0,5.6-2.31l2.42,2,4.28-4.29-2-2.41a16,16,0,0,0,2.31-5.6l3.13-.29V218.5l-3.13-.3a16.07,16.07,0,0,0-2.31-5.6l2-2.41-4.28-4.28-2.42,2a16.13,16.13,0,0,0-5.6-2.32l-.29-3.12H512.8l-.29,3.12a16.13,16.13,0,0,0-5.6,2.32l-2.42-2-4.28,4.28Zm19.42,3.13a8.2,8.2,0,1,1-11.6,0A8.21,8.21,0,0,1,521.63,215.73Z" style="fill: rgb(245, 245, 245); transform-origin: 515.83px 221.53px;" id="el1v4zxc01skl" class="animable"></path><path d="M551.6,234.84a30.25,30.25,0,0,0-4.34,10.52l-5.87.55v11.37l5.88.55a30.25,30.25,0,0,0,4.34,10.52l-3.75,4.53,8,8,4.53-3.75a30.4,30.4,0,0,0,10.51,4.34l.56,5.87h11.37l.55-5.87a30.44,30.44,0,0,0,10.52-4.34l4.53,3.75,8-8-3.75-4.53a30.64,30.64,0,0,0,4.34-10.52l5.87-.55V245.91l-5.87-.55a30.64,30.64,0,0,0-4.34-10.52l3.75-4.53-8-8L593.93,226a30.44,30.44,0,0,0-10.52-4.34l-.55-5.87H571.49l-.56,5.87A30.4,30.4,0,0,0,560.42,226l-4.53-3.75-8,8Zm36.46,5.87a15.39,15.39,0,1,1-21.77,0A15.4,15.4,0,0,1,588.06,240.71Z" style="fill: rgb(245, 245, 245); transform-origin: 577.14px 251.565px;" id="elb0ijxariwu6" class="animable"></path><path d="M146.27,76.24a26.45,26.45,0,0,0-3.79,9.18l-5.13.49v9.93l5.13.48a26.5,26.5,0,0,0,3.79,9.19l-3.28,4,7,7,4-3.28a26.26,26.26,0,0,0,9.18,3.79l.49,5.14h9.93l.48-5.12a26.52,26.52,0,0,0,9.19-3.8l4,3.28,7-7-3.28-4a26.52,26.52,0,0,0,3.8-9.19l5.12-.48V85.91l-5.13-.49a26.47,26.47,0,0,0-3.8-9.18l3.28-4-7-7-4,3.28a26.5,26.5,0,0,0-9.19-3.79l-.48-5.13h-9.93l-.49,5.13A26.45,26.45,0,0,0,154,68.53l-4-3.28-7,7Zm31.85,5.12a13.45,13.45,0,1,1-19,0A13.45,13.45,0,0,1,178.12,81.36Z" style="fill: rgb(245, 245, 245); transform-origin: 168.625px 90.88px;" id="el11u5k826281" class="animable"></path><path d="M673.73,317.18H493a5.87,5.87,0,0,1-5.86-5.86V48A5.87,5.87,0,0,1,493,42.18H673.73A5.87,5.87,0,0,1,679.6,48V311.32A5.87,5.87,0,0,1,673.73,317.18ZM493,42.43A5.61,5.61,0,0,0,487.38,48V311.32a5.61,5.61,0,0,0,5.61,5.61H673.73a5.62,5.62,0,0,0,5.62-5.61V48a5.62,5.62,0,0,0-5.62-5.61Z" style="fill: rgb(224, 224, 224); transform-origin: 583.37px 179.68px;" id="elppch7e3pdkr" class="animable"></path><path d="M465.31,317.18H284.56a5.87,5.87,0,0,1-5.86-5.86V48a5.87,5.87,0,0,1,5.86-5.86H465.31A5.87,5.87,0,0,1,471.17,48V311.32A5.87,5.87,0,0,1,465.31,317.18ZM284.56,42.43A5.62,5.62,0,0,0,279,48V311.32a5.62,5.62,0,0,0,5.61,5.61H465.31a5.62,5.62,0,0,0,5.61-5.61V48a5.62,5.62,0,0,0-5.61-5.61Z" style="fill: rgb(224, 224, 224); transform-origin: 374.935px 179.66px;" id="elxwxbwuk20dh" class="animable"></path><path d="M257,317.18H76.27a5.87,5.87,0,0,1-5.87-5.86V48a5.87,5.87,0,0,1,5.87-5.86H257A5.87,5.87,0,0,1,262.87,48V311.32A5.87,5.87,0,0,1,257,317.18ZM76.27,42.43A5.62,5.62,0,0,0,70.65,48V311.32a5.62,5.62,0,0,0,5.62,5.61H257a5.61,5.61,0,0,0,5.61-5.61V48A5.61,5.61,0,0,0,257,42.43Z" style="fill: rgb(224, 224, 224); transform-origin: 166.635px 179.66px;" id="el5enn0eqap08" class="animable"></path><rect y="378.25" width="750" height="0.12" style="fill: rgb(224, 224, 224); transform-origin: 375px 378.31px;" id="elex24kyt70zq" class="animable"></rect><rect x="653.63" y="407.62" width="55.73" height="0.42" style="fill: rgb(235, 235, 235); transform-origin: 681.495px 407.83px;" id="else7dhnaj637" class="animable"></rect><rect x="495.04" y="412.19" width="14.63" height="0.42" style="fill: rgb(235, 235, 235); transform-origin: 502.355px 412.4px;" id="elwj230ssw4uk" class="animable"></rect><rect x="40.64" y="394.83" width="72.67" height="0.42" style="fill: rgb(235, 235, 235); transform-origin: 76.975px 395.04px;" id="el9bge89vyy9l" class="animable"></rect><rect x="128.3" y="394.83" width="10.66" height="0.42" style="fill: rgb(235, 235, 235); transform-origin: 133.63px 395.04px;" id="el03jgwl1advyx" class="animable"></rect><rect x="173.59" y="401.93" width="157.61" height="0.42" style="fill: rgb(235, 235, 235); transform-origin: 252.395px 402.14px;" id="eleq73u5l29xv" class="animable"></rect></g><g id="freepik--Shadow--inject-28" class="animable" style="transform-origin: 375px 460.64px;"><path d="M629.38,460.64c0,3.39-113.89,6.13-254.38,6.13S120.62,464,120.62,460.64s113.89-6.13,254.38-6.13S629.38,457.25,629.38,460.64Z" style="fill: rgb(245, 245, 245); transform-origin: 375px 460.64px;" id="eltd1igaod17h" class="animable"></path></g><g id="freepik--Chart--inject-28" class="animable" style="transform-origin: 127.955px 160.55px;"><rect x="71.27" y="126.91" width="113.37" height="67.28" rx="4.09" style="fill: rgb(64, 123, 255); transform-origin: 127.955px 160.55px;" id="elbwgtorjhpv" class="animable"></rect><g id="elu0cwnjnduqa"><rect x="71.27" y="126.91" width="113.37" height="67.28" rx="4.09" style="fill: rgb(255, 255, 255); opacity: 0.8; transform-origin: 127.955px 160.55px;" class="animable"></rect></g><path d="M88.48,164.47l-.33-.37c.48-.44,13.62-13.41,13.75-13.54l.12-.12,13.08,6.43L128,141.72l13.14,18.93,12.56-8.2.27.42-13,8.46-13-18.79-12.7,15L102.12,151C100.68,152.46,89,164.05,88.48,164.47Z" style="fill: rgb(38, 50, 56); transform-origin: 121.06px 153.095px;" id="elttg65p1gqf" class="animable"></path><rect x="86.28" y="170.18" width="6.14" height="13.59" style="fill: rgb(64, 123, 255); transform-origin: 89.35px 176.975px;" id="elqtjcawu002q" class="animable"></rect><rect x="98.91" y="161.2" width="6.14" height="22.58" style="fill: rgb(64, 123, 255); transform-origin: 101.98px 172.49px;" id="el38k39vpjejs" class="animable"></rect><rect x="111.78" y="163.47" width="6.14" height="20.31" style="fill: rgb(64, 123, 255); transform-origin: 114.85px 173.625px;" id="elj7em2ndaq9f" class="animable"></rect><rect x="124.89" y="150.74" width="6.14" height="33.04" style="fill: rgb(64, 123, 255); transform-origin: 127.96px 167.26px;" id="elljtemzsole" class="animable"></rect><rect x="138.13" y="168.26" width="6.14" height="15.52" style="fill: rgb(64, 123, 255); transform-origin: 141.2px 176.02px;" id="elhzi2rawkkz" class="animable"></rect><path d="M92.64,162.74a3.3,3.3,0,1,1-3.3-3.29A3.3,3.3,0,0,1,92.64,162.74Z" style="fill: rgb(64, 123, 255); transform-origin: 89.34px 162.75px;" id="elv8c6pzlyk4l" class="animable"></path><path d="M105.27,150.74a3.3,3.3,0,1,1-3.29-3.3A3.29,3.29,0,0,1,105.27,150.74Z" style="fill: rgb(64, 123, 255); transform-origin: 101.97px 150.74px;" id="el05o4tbbetzcl" class="animable"></path><path d="M118.46,156.15a3.3,3.3,0,1,1-3.3-3.3A3.3,3.3,0,0,1,118.46,156.15Z" style="fill: rgb(64, 123, 255); transform-origin: 115.16px 156.15px;" id="elp9jj6t1yjb" class="animable"></path><path d="M131.25,142.13a3.3,3.3,0,1,1-3.3-3.3A3.3,3.3,0,0,1,131.25,142.13Z" style="fill: rgb(64, 123, 255); transform-origin: 127.95px 142.13px;" id="el30z0thuye2v" class="animable"></path><path d="M144.34,161a3.3,3.3,0,1,1-3.3-3.3A3.29,3.29,0,0,1,144.34,161Z" style="fill: rgb(64, 123, 255); transform-origin: 141.04px 161px;" id="elscwrzbbvk8" class="animable"></path><rect x="151.24" y="160.48" width="6.14" height="23.3" style="fill: rgb(64, 123, 255); transform-origin: 154.31px 172.13px;" id="el3xaoxyygegp" class="animable"></rect><g id="elg3hr4kclrm6"><rect x="98.91" y="161.2" width="6.14" height="22.58" style="opacity: 0.3; transform-origin: 101.98px 172.49px;" class="animable"></rect></g><g id="elnpgcvami5z9"><rect x="124.89" y="150.74" width="6.14" height="33.04" style="opacity: 0.3; transform-origin: 127.96px 167.26px;" class="animable"></rect></g><g id="el41818ccxulx"><rect x="151.24" y="160.48" width="6.14" height="23.3" style="opacity: 0.3; transform-origin: 154.31px 172.13px;" class="animable"></rect></g><rect x="164.82" y="168.26" width="6.14" height="15.52" style="fill: rgb(64, 123, 255); transform-origin: 167.89px 176.02px;" id="el8u6x0om1jay" class="animable"></rect><g id="elzs23d2mazyc"><rect x="160.59" y="148.52" width="0.5" height="16.1" style="fill: rgb(38, 50, 56); transform-origin: 160.84px 156.57px; transform: rotate(-60.96deg);" class="animable"></rect></g><path d="M157.83,152.66a3.3,3.3,0,1,1-3.29-3.3A3.29,3.29,0,0,1,157.83,152.66Z" style="fill: rgb(64, 123, 255); transform-origin: 154.53px 152.66px;" id="elhirqrg1p3z" class="animable"></path><circle cx="167.88" cy="160.48" r="3.3" style="fill: rgb(64, 123, 255); transform-origin: 167.88px 160.48px;" id="elykf03bs504t" class="animable"></circle></g><g id="freepik--Box--inject-28" class="animable" style="transform-origin: 651.67px 364.78px;"><circle cx="651.67" cy="364.78" r="57.09" style="fill: rgb(255, 255, 255); transform-origin: 651.67px 364.78px;" id="elryxcbc0tzv" class="animable"></circle><path d="M651.67,422.38a57.6,57.6,0,1,1,57.6-57.6A57.66,57.66,0,0,1,651.67,422.38Zm0-114.19a56.6,56.6,0,1,0,56.6,56.59A56.65,56.65,0,0,0,651.67,308.19Z" style="fill: rgb(38, 50, 56); transform-origin: 651.67px 364.78px;" id="elgcja4uxs83b" class="animable"></path><rect x="623.83" y="354.36" width="56.5" height="39.9" style="fill: rgb(64, 123, 255); transform-origin: 652.08px 374.31px;" id="elpfe2uw8bhl7" class="animable"></rect><g id="elu8dfbmsilrb"><rect x="623.83" y="354.36" width="26.76" height="39.9" style="opacity: 0.3; transform-origin: 637.21px 374.31px;" class="animable"></rect></g><polygon points="623.83 354.36 614.63 369.81 641.2 369.81 650.59 354.36 623.83 354.36" style="fill: rgb(64, 123, 255); transform-origin: 632.61px 362.085px;" id="elibrn6d6hse" class="animable"></polygon><polygon points="650.59 354.36 660.47 369.81 688.71 369.81 680.33 354.36 650.59 354.36" style="fill: rgb(64, 123, 255); transform-origin: 669.65px 362.085px;" id="elt5u3hvxpjwj" class="animable"></polygon><g id="elvzjve4k0fe"><polygon points="650.59 354.36 660.47 369.81 688.71 369.81 680.33 354.36 650.59 354.36" style="opacity: 0.3; transform-origin: 669.65px 362.085px;" class="animable"></polygon></g><path d="M642.05,344.71l-6.87-9.65c-.28-.39-.93,0-.65.38l6.87,9.65c.28.38.93,0,.65-.38Z" style="fill: rgb(38, 50, 56); transform-origin: 638.29px 340.073px;" id="elrc6jsjqt4pl" class="animable"></path><path d="M651.46,344.43l-.27-15.73a.38.38,0,0,0-.75,0l.27,15.73a.38.38,0,0,0,.75,0Z" style="fill: rgb(38, 50, 56); transform-origin: 650.95px 336.565px;" id="eln3k40m5dky" class="animable"></path><path d="M660.88,344.75q2.52-4.49,5-9c.23-.42-.41-.8-.65-.38l-5,9a.37.37,0,0,0,.65.37Z" style="fill: rgb(38, 50, 56); transform-origin: 663.055px 340.058px;" id="elbardtdq4ei6" class="animable"></path><path d="M666.92,333.24l-.06-.06a.42.42,0,0,0-.12-.08.4.4,0,0,0-.15,0,.32.32,0,0,0-.14,0,.25.25,0,0,0-.12.08l-.06.08a.32.32,0,0,0,0,.19v.1a.39.39,0,0,0,.1.16l.06.06a.2.2,0,0,0,.12.08.18.18,0,0,0,.14,0,.38.38,0,0,0,.27-.11l.06-.07a.41.41,0,0,0,0-.19v-.1a.42.42,0,0,0-.1-.17Z" style="fill: rgb(38, 50, 56); transform-origin: 666.643px 333.478px;" id="elen7656phn8c" class="animable"></path></g><g id="freepik--Arrow--inject-28" class="animable" style="transform-origin: 532.812px 150.395px;"><path d="M542.78,187.22,554,240a2.94,2.94,0,0,1-4.18,3.25L510.64,224a3,3,0,0,1-1-4.53l27.95-33.53A3,3,0,0,1,542.78,187.22Z" style="fill: rgb(64, 123, 255); transform-origin: 531.531px 214.229px;" id="elnaef8jnohmm" class="animable"></path><g id="eljbpw080r2gq"><path d="M542.78,187.22,554,240a2.94,2.94,0,0,1-4.18,3.25L510.64,224a3,3,0,0,1-1-4.53l27.95-33.53A3,3,0,0,1,542.78,187.22Z" style="opacity: 0.3; transform-origin: 531.531px 214.229px;" class="animable"></path></g><path d="M545.22,231.12,540.87,201a56.93,56.93,0,1,0-63.18-42.15l-29.52,7.62a87.41,87.41,0,1,1,97.05,64.7Z" style="fill: rgb(64, 123, 255); transform-origin: 532.812px 144.203px;" id="el8ve6ol0zlgb" class="animable"></path><g id="elbja6lxmp1dm"><g style="opacity: 0.3; transform-origin: 532.812px 144.203px;" class="animable"><path d="M545.22,231.12,540.87,201a56.93,56.93,0,1,0-63.18-42.15l-29.52,7.62a87.41,87.41,0,1,1,97.05,64.7Z" id="elvau7vfxu4bm" class="animable" style="transform-origin: 532.812px 144.203px;"></path></g></g></g><g id="freepik--Clock--inject-28" class="animable" style="transform-origin: 534.75px 137.79px;"><g id="elm3q8jx1bf2r"><circle cx="536.61" cy="139.71" r="35.33" style="fill: rgb(64, 123, 255); transform-origin: 536.61px 139.71px; transform: rotate(-15.67deg);" class="animable"></circle></g><g id="eltrjfm245h6r"><circle cx="536.61" cy="139.71" r="35.33" style="opacity: 0.3; transform-origin: 536.61px 139.71px; transform: rotate(-15.67deg);" class="animable"></circle></g><g id="el3jx720i8rqq"><circle cx="534.75" cy="137.79" r="35.33" style="fill: rgb(64, 123, 255); transform-origin: 534.75px 137.79px; transform: rotate(-38.51deg);" class="animable"></circle></g><g id="elxxje7czh1aa"><circle cx="534.75" cy="137.79" r="29.35" style="fill: rgb(255, 255, 255); transform-origin: 534.75px 137.79px; transform: rotate(-59.09deg);" class="animable"></circle></g><path d="M520.66,158.62l3.9-5.78.35.23-3.76,5.87Zm-7.78-8.42c-.1-.17-.19-.34-.28-.52l6.14-3.28.2.36ZM532,162.78l.77-6.92.43,0-.64,6.94Zm-22.33-24.16c0-.2,0-.39,0-.58l7-.07v.42Zm34.26,22.6-2.54-6.49.39-.16,2.78,6.4-.16.06Zm-31.77-34.36.26-.53,6.21,3.17-.19.37Zm36.4,22.82c.08-.1.17-.2.25-.31l5.38,4.43c-.12.16-.25.31-.38.46Zm-24.58-26.49-4.14-5.61.46-.33,4,5.68Zm28.52,18.75.09-.42,6.82,1.46c0,.19-.09.37-.13.56ZM532,119.83l-1.07-6.89.55-.08.95,6.91Zm20.39,13.41c0-.13-.07-.26-.11-.39l6.7-1.91c.06.19.11.38.16.57Zm-11.73-12.65,2.25-6.59.57.2L541,120.73Zm7.61,5-.29-.31,5.06-4.79.4.42Z" id="eln7rnq5jkfoj" class="animable" style="transform-origin: 534.54px 137.83px;"></path><path d="M534.37,139.43h-.07a.5.5,0,0,1-.36-.24l-7-12.06a.49.49,0,0,1,.18-.68.51.51,0,0,1,.69.18l6.68,11.5,10.88-10.58a.5.5,0,0,1,.69.72l-11.33,11A.52.52,0,0,1,534.37,139.43Z" id="elt5lqk1ntiyo" class="animable" style="transform-origin: 536.529px 132.906px;"></path><path d="M536.41,139.48a2.19,2.19,0,1,1-.2-3.09A2.19,2.19,0,0,1,536.41,139.48Z" id="el45xk1xm4t86" class="animable" style="transform-origin: 534.764px 138.035px;"></path><g id="el01426w2mmuap"><path d="M515.16,118.9a29.35,29.35,0,0,1,41.51.62,29,29,0,0,1,6.22,9.62,29.35,29.35,0,1,0-55.38,19.27A29.35,29.35,0,0,1,515.16,118.9Z" style="opacity: 0.3; transform-origin: 534.146px 128.275px;" class="animable"></path></g></g><g id="freepik--character-1--inject-28" class="animable" style="transform-origin: 364.029px 271.75px;"><path d="M240.24,347.49a153.8,153.8,0,0,1,75-251.65L303.9,110.06l19.86,18.16a120.32,120.32,0,0,0-58.65,196.85Z" style="fill: rgb(64, 123, 255); transform-origin: 262.232px 221.665px;" id="el8qe56nooxvo" class="animable"></path><path d="M243.55,349.41c1.24-.31,42.22,0,42.22,0l-20.66-24.34-24.87,22.42Z" style="fill: rgb(64, 123, 255); transform-origin: 263.005px 337.24px;" id="elmqao1uvp5b" class="animable"></path><g id="el82gl3s6uin8"><g style="opacity: 0.3; transform-origin: 262.232px 222.625px;" class="animable"><path d="M240.24,347.49a153.8,153.8,0,0,1,75-251.65L303.9,110.06l19.86,18.16a120.32,120.32,0,0,0-58.65,196.85Z" id="el3xrg4e7qsdt" class="animable" style="transform-origin: 262.232px 221.665px;"></path><path d="M243.55,349.41c1.24-.31,42.22,0,42.22,0l-20.66-24.34-24.87,22.42Z" id="elpfvdgw432j" class="animable" style="transform-origin: 263.005px 337.24px;"></path></g></g><path d="M546.13,403.89v-54a3,3,0,0,1,4.77-2.31l34.3,27a2.94,2.94,0,0,1,0,4.63l-34.3,27A3,3,0,0,1,546.13,403.89Z" style="fill: rgb(64, 123, 255); transform-origin: 566.229px 376.895px;" id="elmle3yq2j0lg" class="animable"></path><rect x="361.01" y="360.86" width="190.69" height="32.09" style="fill: rgb(64, 123, 255); transform-origin: 456.355px 376.905px;" id="eleb3xfsk784v" class="animable"></rect><g id="elwbbxp7sd40n"><path d="M584.9,374.59l-34.3-27a3,3,0,0,0-4.77,2.31v10.95H352.89V393H545.83v10.94a2.94,2.94,0,0,0,4.77,2.31l34.3-27A2.94,2.94,0,0,0,584.9,374.59Z" style="opacity: 0.3; transform-origin: 469.469px 376.95px;" class="animable"></path></g><path d="M352.85,90.87v32.89a118.18,118.18,0,0,1,0,236.35H141.73V393H352.85c83.3,0,151.07-67.77,151.07-151.06S436.15,90.87,352.85,90.87Z" style="fill: rgb(64, 123, 255); transform-origin: 322.825px 241.935px;" id="elrwu2g8cxtv" class="animable"></path><path d="M359.24,80.44l-.11,54a2.94,2.94,0,0,1-4.76,2.3l-34.26-27.06a2.94,2.94,0,0,1,0-4.62l34.36-26.92A2.94,2.94,0,0,1,359.24,80.44Z" style="fill: rgb(64, 123, 255); transform-origin: 339.114px 107.436px;" id="elsrwrltm0q3" class="animable"></path><g id="eln1sfuy5syxm"><path d="M359.22,361.05c.65,0-13.4,8.9-22.9,8.83l-.9,24h-6.28l-12-32.09Z" style="opacity: 0.3; transform-origin: 338.191px 377.465px;" class="animable"></path></g><path d="M347.63,194.91c4.4,7,6,11.17,6.71,18,.8,8,.77,15.08-.93,17.22-2.22,2.8-27.46,6.5-41.69,6.59-.52,0-1.15-4.49-1.15-4.49s-1.81,4.5-2.48,4.5c-3.89,0-6.38,0-6.38,0s2.91-6.76,5.74-30.81c1.38-11.74,12.89-16.94,19.76-18.14C338.66,185.77,347.63,194.91,347.63,194.91Z" style="fill: rgb(38, 50, 56); transform-origin: 328.279px 212.111px;" id="el1ncgmk8i6e4" class="animable"></path><path d="M314.88,219c-4-6.26-8.51-23.42,6.74-29.49,19-7.57,28.26,4.37,30.5,16.52s-4.24,21.7-17.06,21.37S317.66,223.32,314.88,219Z" style="fill: rgb(38, 50, 56); transform-origin: 331.782px 207.275px;" id="el53a70pu3q6n" class="animable"></path><path d="M346.71,242.07s-4.28,3.29-9.8,8a20.37,20.37,0,0,1-3.75,2.56c-3.61,1.92-6.91,3-7.8,1.28a5.75,5.75,0,0,1-.46-1.24c-.76-2.91-.45-7,1.91-8.89,2.66-2.12,3.94-3.93,3.46-6.79a21.21,21.21,0,0,0-1.53-4.93l2.1-2.45,10.94-11C341.5,226,341,238.07,346.71,242.07Z" style="fill: rgb(235, 179, 115); transform-origin: 335.62px 236.691px;" id="elpsm83t4vjtk" class="animable"></path><g id="el1cd37r61kfr"><path d="M330.36,237.66c3-1.79,6.31-4.89,5.91-8.43a16.19,16.19,0,0,0-.85-3.81l-6.11,8.1A20.55,20.55,0,0,1,330.36,237.66Z" style="opacity: 0.2; transform-origin: 332.806px 231.54px;" class="animable"></path></g><path d="M344.87,206.77c-1,11.24-1.22,16-7,21.9-8.73,8.87-22.16,5.88-24.47-5.26-2.08-10,0-26.73,11-31.45C335.25,187.3,345.9,195.52,344.87,206.77Z" style="fill: rgb(235, 179, 115); transform-origin: 328.811px 212.244px;" id="elg4cl9u62qbt" class="animable"></path><path d="M330.78,210.84c-.06,1.13-.76,2.06-1.55,2.08s-1.39-.89-1.33-2,.76-2.06,1.55-2.08S330.84,209.71,330.78,210.84Z" style="fill: rgb(38, 50, 56); transform-origin: 329.34px 210.88px;" id="el29hveqnaqps" class="animable"></path><path d="M319.09,210.63c-.06,1.08-.74,2-1.52,2s-1.37-.85-1.31-1.93.75-2,1.53-2S319.16,209.55,319.09,210.63Z" style="fill: rgb(38, 50, 56); transform-origin: 317.676px 210.665px;" id="elpirm5muvzed" class="animable"></path><path d="M332.37,206.69a.57.57,0,0,1-.44-.09,4.66,4.66,0,0,0-4.09-.65.55.55,0,0,1-.73-.31.62.62,0,0,1,.39-.74,5.83,5.83,0,0,1,5.18.78.53.53,0,0,1,.07.78A.69.69,0,0,1,332.37,206.69Z" style="fill: rgb(38, 50, 56); transform-origin: 329.99px 205.656px;" id="elaex9820uztr" class="animable"></path><path d="M315.12,205.18a.47.47,0,0,1-.27-.3.54.54,0,0,1,.36-.68,5.79,5.79,0,0,1,5.12.5.5.5,0,0,1,.08.74.58.58,0,0,1-.79.11,4.62,4.62,0,0,0-4.06-.35A.6.6,0,0,1,315.12,205.18Z" style="fill: rgb(38, 50, 56); transform-origin: 317.681px 204.74px;" id="el4y48bxs736s" class="animable"></path><path d="M335.48,196.77c-3.57,3.76-1.8,17.94,8.24,19.8C355.29,213.85,346.16,185.56,335.48,196.77Z" style="fill: rgb(38, 50, 56); transform-origin: 341.443px 205.362px;" id="ell61mpb219ht" class="animable"></path><path d="M322.06,221.13a32.29,32.29,0,0,1,2,4.14c.27-.05.53-.11.79-.18,3.58-.83,5-2.41,5.41-3.89a4.7,4.7,0,0,0,.08-2.25,4.77,4.77,0,0,0-.4-1.22c-1.63,1.58-4.91,2.62-6.68,3.1C322.53,221,322.06,221.13,322.06,221.13Z" style="fill: rgb(38, 50, 56); transform-origin: 326.25px 221.5px;" id="elxpkks62md1" class="animable"></path><path d="M323.27,220.83l.63,1.2c3.37-.79,5.63-1.81,6.45-3.08a4.77,4.77,0,0,0-.4-1.22C328.32,219.31,325,220.35,323.27,220.83Z" style="fill: rgb(255, 255, 255); transform-origin: 326.81px 219.88px;" id="elcw7i692a7mf" class="animable"></path><path d="M324.86,225.09c3.58-.83,5-2.41,5.41-3.89a11.78,11.78,0,0,0-3.78,1.71A4.44,4.44,0,0,0,324.86,225.09Z" style="fill: rgb(220, 87, 83); transform-origin: 327.565px 223.145px;" id="elgq3hnk885bg" class="animable"></path><path d="M322.24,209.84s-2.11,5.07-4.32,7.55c1.43,1.39,4,.66,4,.66Z" style="fill: rgb(228, 135, 62); transform-origin: 320.08px 214.041px;" id="elx10d5yudun" class="animable"></path><path d="M327.21,208.28l2.58.61C328.62,210.21,327.21,208.28,327.21,208.28Z" style="fill: rgb(38, 50, 56); transform-origin: 328.5px 208.816px;" id="eli6v79d9wvyb" class="animable"></path><path d="M315.68,208.17l2.58.61C317.09,210.1,315.68,208.17,315.68,208.17Z" style="fill: rgb(38, 50, 56); transform-origin: 316.97px 208.706px;" id="el6mzfdt0pikg" class="animable"></path><path d="M324.45,189.55c-4.44,1.5-9.15,9.19-9.94,12.14,6.31,1,23.33-4.88,23.33-4.88s11.36,3.14,5.6-2.62S324.45,189.55,324.45,189.55Z" style="fill: rgb(38, 50, 56); transform-origin: 329.79px 195.633px;" id="el6rriua7dwfb" class="animable"></path><path d="M348.28,215.93a9.1,9.1,0,0,1-5.47,4.25c-3,.74-4.51-4-3.49-7a6,6,0,0,1,6.73-3.88C348.9,209.86,349.79,213.29,348.28,215.93Z" style="fill: rgb(235, 179, 115); transform-origin: 344.005px 214.73px;" id="elq451cxtyvg" class="animable"></path><path d="M297,235.76l-.27-.41c4.11-2.75,7.53-12.41,9.18-17s2.31-9.73,2.93-14.59l.5.06c-.63,4.89-1.27,9.95-3,14.7S301.22,232.93,297,235.76Z" style="fill: rgb(38, 50, 56); transform-origin: 303.035px 219.76px;" id="elj2uie8s0le" class="animable"></path><circle cx="344.01" cy="219.88" r="2.1" style="fill: rgb(64, 123, 255); transform-origin: 344.01px 219.88px;" id="elewaz00ukiz" class="animable"></circle><g id="elxfx3lteapwm"><path d="M341.58,216.14h0a.26.26,0,0,1-.25-.26,3.68,3.68,0,0,1,4.66-3.4.25.25,0,0,1,.17.31.25.25,0,0,1-.31.17,3.22,3.22,0,0,0-2.72.49,3.25,3.25,0,0,0-1.3,2.45A.25.25,0,0,1,341.58,216.14Z" style="opacity: 0.1; transform-origin: 343.75px 214.243px;" class="animable"></path></g><path d="M258.27,314.45c.55-1.55,4.55-6.73,6.68-8.67s9.66-6.17,9.66-6.17l6.36,6s-.59,3.45-3.15,4.72c-1.47.73-3,1.32-3,1.32a12.55,12.55,0,0,1-.34,2.76c-.38,1.57-1.19,3.43-2.47,3s-.69-4.66-.61-5.27c-.09.62-.81,5-2.57,4.67s-.85-4.78-.85-4.78-.61,2-.93,3.08-1.62,1.7-2.3.28a7.47,7.47,0,0,1-.29-4,36.27,36.27,0,0,0-3.35,3.8C259.6,317.15,257.79,315.76,258.27,314.45Z" style="fill: rgb(235, 179, 115); transform-origin: 269.581px 308.541px;" id="elfo2e3pbq0p" class="animable"></path><g id="elnr30bhq1hv"><path d="M271.26,313.26h-.05a.26.26,0,0,1-.2-.3,14.37,14.37,0,0,1,.66-2.43,4.54,4.54,0,0,1,1.53-2.07.25.25,0,0,1,.29.41,4.1,4.1,0,0,0-1.36,1.85,13.72,13.72,0,0,0-.63,2.34A.24.24,0,0,1,271.26,313.26Z" style="opacity: 0.1; transform-origin: 272.301px 310.837px;" class="animable"></path></g><g id="elmgjjxthypxd"><path d="M267.74,313h-.05a.24.24,0,0,1-.19-.29,13.23,13.23,0,0,1,.65-2.43,4.56,4.56,0,0,1,1.53-2.07.25.25,0,1,1,.29.4,4.2,4.2,0,0,0-1.36,1.86,13.21,13.21,0,0,0-.62,2.34A.26.26,0,0,1,267.74,313Z" style="opacity: 0.1; transform-origin: 268.8px 310.569px;" class="animable"></path></g><g id="el2rjpxv688oc"><path d="M264.46,311.82h0a.25.25,0,0,1-.2-.3,13.13,13.13,0,0,1,.65-2.42,4.72,4.72,0,0,1,1.53-2.08.25.25,0,0,1,.3.41,4.1,4.1,0,0,0-1.36,1.85,12.85,12.85,0,0,0-.63,2.34A.25.25,0,0,1,264.46,311.82Z" style="opacity: 0.1; transform-origin: 265.549px 309.397px;" class="animable"></path></g><path d="M308,258.74c0,.71-2,26.22-2,26.22-1.42,2.66-30.63,12.8-34.37,16.51l6.81,7s34.76-7,40.38-11.1c4.78-3.48,4.38-9.58,4.38-17.92s2.91-20,2.91-20Z" style="fill: rgb(235, 179, 115); transform-origin: 298.87px 283.605px;" id="elif4nbquw6zb" class="animable"></path><path d="M321.23,243.67c-13.78,2.36-15.68,22.76-15.68,22.76l-2.09,16.2-7.82,5.7L303,303.94s15.61-5.94,22.47-10,7-35.18,7-35.18Z" style="fill: rgb(64, 123, 255); transform-origin: 314.055px 273.805px;" id="el6tbeig03m8g" class="animable"></path><g id="eli43bf5gquxb"><path d="M318.75,296.41c.26.12-5.77,3.48-5.77,3.48S310.8,291,310.73,291a74.21,74.21,0,0,1-1.08-26.95C312.17,269.31,318.12,292,318.75,296.41Z" style="opacity: 0.2; transform-origin: 313.827px 281.97px;" class="animable"></path></g><path d="M321.78,314.87c11.49-1.15,26.43-2.07,45.87-2.5,0,0,14.5,34.14-2.69,44.34-5.2,3.08-13.77,4.3-23.21,4.5a19.51,19.51,0,0,1-20-19.49Z" style="fill: rgb(38, 50, 56); transform-origin: 347.558px 336.793px;" id="elex2jmejbe9g" class="animable"></path><path d="M359.33,343v16c-14.3,4.13-44,2.56-61.61,1.12a15.31,15.31,0,0,1-14.06-15.26V331.73a10.45,10.45,0,0,1,6.79-9.8c8.55-3.22,24.11-8,40.39-7.76A28.86,28.86,0,0,1,359.33,343Z" style="fill: rgb(38, 50, 56); transform-origin: 321.495px 337.907px;" id="elj4hf27wtbph" class="animable"></path><path d="M370.24,312.36c-2.22-2.93-7.37-9.94-8-17.32V295c0-.47-.07-1-.07-1.42-.11-3.14-.09-6.86.11-11.32,0-.69.07-1.43.11-2.17.13-2.34.31-4.86.53-7.6.42-4.92,1-10.53,1.83-16.91.18-1.47,1.57-3.76,1.78-5.32.93-7-5.4-12-12.24-11.69-1.82.07-3.76.19-5.72.39a145.74,145.74,0,0,0-20.64,3c-2.21.52-4.5,1.15-6.68,1.77-7.86,2.26-11.48,12.31-11.58,20.4-.09,7.54,5.19,22.93,8.82,36.45.53,7.75-3.7,12-2.43,14.68s38.76-4.64,54.2,4.57C370.24,319.77,372.61,315.49,370.24,312.36Z" style="fill: rgb(64, 123, 255); transform-origin: 340.481px 279.193px;" id="eltwat3q4uj8f" class="animable"></path><g id="el3u87iam484x"><path d="M370.24,312.36c-2.22-2.93-7.37-9.94-8-17.32V295c0-.47-.07-1-.07-1.42-.11-3.14-.09-6.86.11-11.32,0-.69.07-1.43.11-2.17.13-2.34.31-4.86.53-7.6.42-4.92,1-10.53,1.83-16.91.18-1.47,1.57-3.76,1.78-5.32.93-7-5.4-12-12.24-11.69-1.82.07-3.76.19-5.72.39a145.74,145.74,0,0,0-20.64,3c-2.21.52-4.5,1.15-6.68,1.77-7.86,2.26-11.48,12.31-11.58,20.4-.09,7.54,5.19,22.93,8.82,36.45.53,7.75-3.7,12-2.43,14.68s38.76-4.64,54.2,4.57C370.24,319.77,372.61,315.49,370.24,312.36Z" style="fill: rgb(255, 255, 255); opacity: 0.3; transform-origin: 340.481px 279.193px;" class="animable"></path></g><g id="elxend68ccci"><path d="M364.27,302.57s-13.23,2.9-19.38,3.18-19.47,4.48-19.47,4.48l-4.74,2.94L319,309.26l8-7.21,35-7.1A39.69,39.69,0,0,0,364.27,302.57Z" style="opacity: 0.2; transform-origin: 341.635px 304.06px;" class="animable"></path></g><g id="elkgah4zgt6s"><polygon points="349.12 259 347.45 281.62 339.95 288.97 345.2 293.05 352.34 288.74 356.03 276.02 349.12 259" style="opacity: 0.2; transform-origin: 347.99px 276.025px;" class="animable"></polygon></g><path d="M292.56,465.44l17.56-7.74,5.55-6.2,1.72,2.33,2.09-.91c1-7.79-2.8-11.44-4.79-13.09-.14-.13-.35-.27-.58-.46a1.77,1.77,0,0,0-.24-.17l-.09-.07c-.08-.06-.18-.12-.27-.2s0,0-.07,0v0l-.15-.09L303.65,443s-.16.51-.46,1.33c-1,2.71-3.34,8.89-6,12.19l-.34.41a6.93,6.93,0,0,1-1,1C288.53,463.88,292.56,465.44,292.56,465.44Z" style="fill: rgb(38, 50, 56); transform-origin: 305.549px 452.14px;" id="el2rqra8qyxk6" class="animable"></path><path d="M296.85,456.92c2.74,1.08,6.62-1.64,9.57-5.19a52.24,52.24,0,0,0,4.65-7.79,17.27,17.27,0,0,1,2.48-3.77c.41-.36.79-.52,1.12-.36a0,0,0,0,1,0,0c-.14-.13-.34-.27-.58-.46a1.91,1.91,0,0,0-.24-.17l-.09-.06-.27-.21-.06,0v0l-.16-.09c-1-.76-2.13-1.53-2.13-1.53l-9.06,2.27.7,3.47c-1,3.58-3.14,10.39-5.58,13.56C297.07,456.65,297,456.8,296.85,456.92Z" style="fill: rgb(235, 179, 115); transform-origin: 305.76px 447.225px;" id="elvxu7tutohq" class="animable"></path><path d="M282.09,389.42c5.6,13.9,14.29,31.61,20.7,53.82.12.4.24.81.35,1.21s.25.85.37,1.28l6.63-1.61.29-1.15s2.28-1.78,1.89-2.18-.08-.76-.12-1.18h0c-1.79-15.49-8.66-72.34-15.48-84.15,0,0,7.73,1.44,13.58.45,4.23-.71,9.34-29.92,9.34-29.92a90.22,90.22,0,0,0-21.8-3.09h-.15s-21.71,6.42-27.22,11.28c-5.19,4.57-6,12.06-3.09,21C270,363.28,275.16,372.2,282.09,389.42Z" style="fill: rgb(235, 179, 115); transform-origin: 292.675px 384.315px;" id="elxu0wtlmg7i" class="animable"></path><g id="eltenp8128wj8"><path d="M275.89,341.19c1.28-5.05,10.58-10,20.19-12.63,1.56-2-2.43-4.41-2.43-4.41l18.91-1.71,3.3,2.37L321.5,326l-5,22.59-20.65,3.62,13.06,60.63,1.55,12s-22.14-47.5-26.77-57.6S273.66,350,275.89,341.19Z" style="opacity: 0.1; transform-origin: 298.436px 373.64px;" class="animable"></path></g><path d="M319.65,326s-29.51,6.25-35.28,10.8c-4.9,3.88-5,8.94-3.45,13.72,4.4,13.21,20.18,35.24,38.24,98.47l10.35-3.25c-1,0-3.59-33-4.36-59.53-.36-12.5-6.78-23.29-9.29-27.64,0,0,10.55,1.42,16.4.44C339.78,357.74,344.54,332.64,319.65,326Z" style="fill: rgb(235, 179, 115); transform-origin: 309.164px 387.495px;" id="elo14ba1pqiuc" class="animable"></path><g id="elz9xjso873cs"><path d="M316.47,359.74s-3.91-6.49-8.8-9.23c0,0,6,.39,9.77,8.23l-1.58-.18Z" style="opacity: 0.2; transform-origin: 312.555px 355.125px;" class="animable"></path></g><path d="M333,459.35l-2.15.47-1.8-3a.66.66,0,0,0-1-.15l-6.13,5.68L305.18,466s-3.73-3.94,4.59-6.45a3.59,3.59,0,0,0,1.12-.73C315,455.7,320,447,320,447l9.92-2.17a13.25,13.25,0,0,1,1.12,1.25C332.55,448,335.43,452.18,333,459.35Z" style="fill: rgb(38, 50, 56); transform-origin: 319.143px 455.415px;" id="el0ztnfkjonno" class="animable"></path><path d="M331,446.07v0c-1.63-1.17-6.18,6.55-10.07,9.69-3.47,2.79-7.66,4.61-10,3.07,4.12-3.16,9.28-14.14,9.28-14.14l8-1.75S330.32,445.24,331,446.07Z" style="fill: rgb(235, 179, 115); transform-origin: 320.965px 451.166px;" id="el9ud8qekefa" class="animable"></path><path d="M300.6,330.26l29.09-11.06a.68.68,0,0,0-.2-1.3l-46.69-.56a.55.55,0,0,0-.32.1l-18,11.62a.68.68,0,0,0,.31,1.24h35.55A.52.52,0,0,0,300.6,330.26Z" style="fill: rgb(38, 50, 56); transform-origin: 297.14px 323.821px;" id="elbenvhrqq6l" class="animable"></path><g id="elq3gjdbhm5rj"><path d="M300.6,330.26l29.09-11.06a.68.68,0,0,0-.2-1.3l-46.69-.56a.55.55,0,0,0-.32.1l-18,11.62a.68.68,0,0,0,.31,1.24h35.55A.52.52,0,0,0,300.6,330.26Z" style="fill: rgb(255, 255, 255); opacity: 0.7; transform-origin: 297.14px 323.821px;" class="animable"></path></g><g id="eledt97o2c5f4"><polygon points="300.7 326.96 319.46 320.05 297.48 319.59 300.7 326.96" style="fill: rgb(255, 255, 255); opacity: 0.7; transform-origin: 308.47px 323.275px;" class="animable"></polygon></g><g id="elg5fo1a1iz8k"><path d="M329.69,319.2,300.6,330.26a.52.52,0,0,1-.21,0h-.45l-.55-1.6,30.1-10.8A.68.68,0,0,1,329.69,319.2Z" style="opacity: 0.3; transform-origin: 314.801px 324.065px;" class="animable"></path></g><path d="M262.62,330.3H300.5a1.07,1.07,0,0,0,1.17-1,.75.75,0,0,0-.06-.29l-16.85-38.63a3.28,3.28,0,0,0-3.13-1.86h-37.9a1.05,1.05,0,0,0-1.16.93.91.91,0,0,0,.06.32l16.86,38.63A3.3,3.3,0,0,0,262.62,330.3Z" style="fill: rgb(38, 50, 56); transform-origin: 272.12px 309.409px;" id="elan36g1b2z9q" class="animable"></path><g id="elrqve9yqxmyk"><path d="M243.73,288.56h37.9a3.28,3.28,0,0,1,3.13,1.86l16.85,38.63a.75.75,0,0,1,.06.29,1.07,1.07,0,0,1-1.17,1H262.62a3.33,3.33,0,0,1-3.14-1.86l-16.85-38.63a.91.91,0,0,1-.06-.32A1.05,1.05,0,0,1,243.73,288.56Z" style="fill: rgb(255, 255, 255); opacity: 0.7; transform-origin: 272.12px 309.449px;" class="animable"></path></g><path d="M267.2,310.29c.82,1.85,2.48,3.13,3.71,2.87s1.57-2,.78-3.81-2.48-3.1-3.71-2.84S266.37,308.39,267.2,310.29Z" style="fill: rgb(255, 255, 255); transform-origin: 269.436px 309.835px;" id="elvz0fcoqhla" class="animable"></path><g id="el9q5t49c1r7n"><path d="M281.4,288.56h.23a3.28,3.28,0,0,1,3.13,1.86l16.85,38.63a.75.75,0,0,1,.06.29,1.07,1.07,0,0,1-1.17,1h-1.22Z" style="opacity: 0.3; transform-origin: 291.535px 309.45px;" class="animable"></path></g><path d="M349.85,256.87c0,.71,2.28,26,2.28,26-1.42,2.66-30.63,12.8-34.37,16.52l6.81,7s34.76-7,40.37-11.09c4.79-3.48,4.39-9.59,4.39-17.93a173.52,173.52,0,0,0-1.82-20.48Z" style="fill: rgb(235, 179, 115); transform-origin: 343.549px 281.63px;" id="el2ki3ydu178j" class="animable"></path><path d="M352.8,241.28c-7.18,3-1.7,41.42-1.7,41.42l-7.06,3,4.34,16.36s8.7-1.65,17.39-3.43c9.19-1.87,10.54-23.08,5.94-40.26S361.2,237.77,352.8,241.28Z" style="fill: rgb(64, 123, 255); transform-origin: 359.158px 271.05px;" id="elasterl7k86l" class="animable"></path><path d="M305.56,317.75c.16-1.64,2.76-7.65,4.35-10s7.85-8.35,7.85-8.35l7.65,4.27s.26,3.49-1.9,5.35c-1.25,1.07-2.59,2-2.59,2a12.28,12.28,0,0,1,.36,2.76c0,1.62-.32,3.61-1.65,3.55s-1.82-4.34-1.89-5c.07.62.43,5-1.35,5.16s-2-4.42-2-4.42-.09,2.13-.14,3.22-1.15,2-2.16.82a7.45,7.45,0,0,1-1.27-3.83,35.63,35.63,0,0,0-2.31,4.51C307.51,320,305.42,319.14,305.56,317.75Z" style="fill: rgb(235, 179, 115); transform-origin: 315.487px 309.27px;" id="elw1pacigzx9" class="animable"></path><g id="elp8xgfhjm5"><path d="M317.8,313.42a.26.26,0,0,1-.25-.24,13.3,13.3,0,0,1,0-2.52,4.59,4.59,0,0,1,1-2.38.25.25,0,0,1,.38.32,4.16,4.16,0,0,0-.86,2.13,13.06,13.06,0,0,0,0,2.42.26.26,0,0,1-.24.27Z" style="opacity: 0.1; transform-origin: 318.231px 310.816px;" class="animable"></path></g><g id="elac04sd73cgo"><path d="M314.32,314a.26.26,0,0,1-.25-.24,14.18,14.18,0,0,1,0-2.52,4.68,4.68,0,0,1,1-2.38.25.25,0,0,1,.38.32,4.16,4.16,0,0,0-.86,2.13,13.06,13.06,0,0,0,0,2.42.26.26,0,0,1-.24.27Z" style="opacity: 0.1; transform-origin: 314.753px 311.396px;" class="animable"></path></g><g id="eljryulgvrz4"><path d="M310.85,313.69a.25.25,0,0,1-.25-.23,13.28,13.28,0,0,1,0-2.52,4.66,4.66,0,0,1,1-2.39.26.26,0,1,1,.39.33,4.1,4.1,0,0,0-.87,2.13,13,13,0,0,0,0,2.42.24.24,0,0,1-.23.26Z" style="opacity: 0.1; transform-origin: 311.313px 311.054px;" class="animable"></path></g></g><g id="freepik--light-bulb--inject-28" class="animable" style="transform-origin: 107px 364.78px;"><circle cx="106.99" cy="364.78" r="57.09" style="fill: rgb(255, 255, 255); transform-origin: 106.99px 364.78px;" id="el8q4459xktmo" class="animable"></circle><path d="M107,422.38a57.6,57.6,0,1,1,57.6-57.6A57.66,57.66,0,0,1,107,422.38Zm0-114.19a56.6,56.6,0,1,0,56.6,56.59A56.66,56.66,0,0,0,107,308.19Z" style="fill: rgb(38, 50, 56); transform-origin: 107px 364.78px;" id="ela27mg2ysd5b" class="animable"></path><path d="M117.81,401.27c0,3.73-5.18,6.72-11.49,6.62S95,404.74,95,401s5.18-6.72,11.48-6.6S117.86,397.55,117.81,401.27Z" style="fill: rgb(38, 50, 56); transform-origin: 106.405px 401.144px;" id="el4rj0zwd6tmm" class="animable"></path><path d="M122.74,389a3.36,3.36,0,0,0,1-2.24c0-3.66-7.69-6.72-17.28-6.81s-17.39,2.76-17.44,6.41a3.36,3.36,0,0,0,1,2.24,2.75,2.75,0,0,0-.3,1.12,3.13,3.13,0,0,0,1,2.24,2.51,2.51,0,0,0-.33,1.19,3.15,3.15,0,0,0,1,2.24,2.33,2.33,0,0,0-.35,1.21,3,3,0,0,0,1.12,2.17,2.34,2.34,0,0,0-.38,1.22c0,3,6.39,5.6,14.36,5.67s14.46-2.24,14.49-5.34a2.29,2.29,0,0,0-.35-1.23,3.06,3.06,0,0,0,1.12-2.15,2.55,2.55,0,0,0-.33-1.21,3.19,3.19,0,0,0,1.12-2.18,2.59,2.59,0,0,0-.3-1.19,3.23,3.23,0,0,0,1.12-2.19A2.83,2.83,0,0,0,122.74,389Z" style="fill: rgb(38, 50, 56); transform-origin: 106.38px 392.805px;" id="elbd9shjfmk0h" class="animable"></path><path d="M137.12,356.72a30.72,30.72,0,1,0-50.46,23.17,5.08,5.08,0,0,1,1.81,4.39,1,1,0,0,0,0,.25c0,3.71,7.84,6.81,17.56,6.92s17.66-2.81,17.7-6.53v-.23a5.11,5.11,0,0,1,1.92-4.45A30.65,30.65,0,0,0,137.12,356.72Z" style="fill: rgb(64, 123, 255); transform-origin: 106.402px 358.543px;" id="elo0jxwxqrwpk" class="animable"></path><path d="M83,368.54a.51.51,0,0,1-.44-.25A24.11,24.11,0,0,1,87,338.51a.5.5,0,0,1,.71,0,.5.5,0,0,1,0,.7,23.11,23.11,0,0,0-4.21,28.55.49.49,0,0,1-.18.68A.47.47,0,0,1,83,368.54Z" style="fill: rgb(255, 255, 255); transform-origin: 83.5746px 353.452px;" id="el9e5s8rj1l4h" class="animable"></path><path d="M92.21,398.82a37.54,37.54,0,0,0,28.07.34,34.85,34.85,0,0,1-28.07-.34Z" style="fill: rgb(38, 50, 56); transform-origin: 106.245px 400.382px;" id="elxxf6lu7of6i" class="animable"></path><path d="M92,395.53a37.61,37.61,0,0,0,28.06.34A34.91,34.91,0,0,1,92,395.53Z" style="fill: rgb(38, 50, 56); transform-origin: 106.03px 397.088px;" id="elyz4syx0tmva" class="animable"></path><path d="M91.8,392.23a37.56,37.56,0,0,0,28.06.34,34.87,34.87,0,0,1-28.06-.34Z" style="fill: rgb(38, 50, 56); transform-origin: 105.83px 393.79px;" id="elztj3c3vwte" class="animable"></path><path d="M115.32,385.09a103.63,103.63,0,0,1-3.9-12.7,7.05,7.05,0,0,1-5,2,7.28,7.28,0,0,1-4.1-1.71,53.54,53.54,0,0,1-2.09,12.39l-1-.28a52.42,52.42,0,0,0,2.08-12.94c-.22-.21-.45-.43-.67-.67-3.44-3.58-5-8-4.3-11.87.28-1.46,1.14-2.91,2.51-2.89,1.22,0,2.12,1.23,2.53,3.38a54,54,0,0,1,.95,11.62,6.86,6.86,0,0,0,4.09,2,6.7,6.7,0,0,0,4.69-2.13c-.75-3.3-1.35-6.66-1.78-10a10.25,10.25,0,0,1,0-3.58,3.39,3.39,0,0,1,2.34-2.74c1.9-.4,3.44,1.62,4,3.83a14.43,14.43,0,0,1-3.36,12.76l-.08.08a103.64,103.64,0,0,0,4,13.16ZM98.85,357.43c-.71,0-1.28,1-1.48,2.08-.69,3.53.82,7.63,4,11a52.79,52.79,0,0,0-.94-10.48c-.11-.59-.57-2.54-1.58-2.57Zm13.34-1.57-.26,0a2.51,2.51,0,0,0-1.58,2,9.48,9.48,0,0,0,0,3.23q.6,4.69,1.61,9.28A13.63,13.63,0,0,0,114.72,359C114.34,357.37,113.31,355.86,112.19,355.86Z" style="fill: rgb(38, 50, 56); transform-origin: 106.203px 370.005px;" id="ell6jxcxh9nd" class="animable"></path></g><g id="freepik--character-2--inject-28" class="animable" style="transform-origin: 456.35px 373.627px;"><path d="M422.53,410.16s98.63-23.1,103.32-2.56c6.7,29.33-64.47,49-102.37,47.85S422.53,410.16,422.53,410.16Z" style="fill: rgb(38, 50, 56); isolation: isolate; transform-origin: 466.339px 427.294px;" id="el36g6e4zs0e9" class="animable"></path><g id="el7u697deswxq"><path d="M422.53,410.16s98.63-23.1,103.32-2.56c6.7,29.33-64.47,49-102.37,47.85S422.53,410.16,422.53,410.16Z" style="isolation: isolate; opacity: 0.2; transform-origin: 466.339px 427.294px;" class="animable"></path></g><g id="eljwwx2hjfuoi"><path d="M493.49,413.94l-46.32,29.44,6.18,8.78s-3.26,4.83-9.46-10l28.66-18.94s-9-.9-8.74-2.3c.38-2.31,20.09-6.69,29.07-8.66a.89.89,0,0,1,1.15.54A.9.9,0,0,1,493.49,413.94Z" style="isolation: isolate; opacity: 0.7; transform-origin: 468.985px 432.558px;" class="animable"></path></g><g id="elcaiif5kut6"><path d="M445.49,440.06l8,13a160.77,160.77,0,0,1-30,2.37,28.49,28.49,0,0,1-9.68-1.76L411,448.53l6.07-12.23Z" style="isolation: isolate; opacity: 0.7; transform-origin: 432.245px 445.874px;" class="animable"></path></g><polygon points="460.82 434.88 440.22 447.95 443.91 457.95 468.1 447.08 460.82 434.88" style="fill: rgb(185, 121, 100); transform-origin: 454.16px 446.415px;" id="els8axdgn6n8" class="animable"></polygon><path d="M428.88,451.3l2,7.19a2.82,2.82,0,0,1,2,1.83,9.24,9.24,0,0,1-.36,3.2L438,483.33a7.64,7.64,0,0,0,1.89-.74,9.32,9.32,0,0,0,1.58-1.43c1.46-1.69,1.62-4.14,1.68-6,.09-3,1.84-11.92,1.84-11.92a9.82,9.82,0,0,1,3.11-4.36,4.4,4.4,0,0,0,1.86-3.46c-.25-1.81-1.56-2.49-3.25-2.29l-2,.24a3.43,3.43,0,0,1-.95-4.52s1.17-4.32-.64-3.59c-1,.41-5.58,2.44-9.23,3.93l-2.35,1h0Z" style="fill: rgb(38, 50, 56); transform-origin: 439.42px 464.253px;" id="elg5e6miuygqi" class="animable"></path><path d="M444.18,468a.29.29,0,0,0-.07-.33,3.35,3.35,0,0,0-1.54-.8c-.32-.06-.46.44-.14.51a2.89,2.89,0,0,1,1.36.69.24.24,0,0,0,.38-.06Z" style="fill: rgb(64, 123, 255); transform-origin: 443.227px 467.502px;" id="el26frsoufi05" class="animable"></path><path d="M444.58,466.27a.28.28,0,0,0-.07-.34,3.2,3.2,0,0,0-1.54-.79c-.31-.07-.46.43-.14.5a2.86,2.86,0,0,1,1.36.7.25.25,0,0,0,.39-.07Z" style="fill: rgb(64, 123, 255); transform-origin: 443.631px 465.769px;" id="elqwag4nyr94" class="animable"></path><path d="M444.92,464.48a.29.29,0,0,0-.07-.33,3.31,3.31,0,0,0-1.54-.8c-.32-.06-.46.44-.14.5a2.91,2.91,0,0,1,1.36.7.25.25,0,0,0,.39-.06Z" style="fill: rgb(64, 123, 255); transform-origin: 443.967px 463.982px;" id="el5updb9s263l" class="animable"></path><g id="el3jjaxoq7je8"><path d="M431.52,450.21h0l-2.64,1.09,2,7.19a2.82,2.82,0,0,1,2,1.83,9.24,9.24,0,0,1-.36,3.2L438,483.33a7.64,7.64,0,0,0,1.89-.74c.29-.22.55-.43.8-.65l-8.73-31.89Z" style="fill: rgb(255, 255, 255); isolation: isolate; opacity: 0.2; transform-origin: 434.785px 466.69px;" class="animable"></path></g><path d="M447.67,465.92a2.76,2.76,0,0,1-.57-.06,9.55,9.55,0,0,1-2.54-1.4l-.19-.13.22-.09.05.12,0-.12a11.8,11.8,0,0,1,2.07-.62,4.14,4.14,0,0,1,2.18.12,1.08,1.08,0,0,1,.78.74,1,1,0,0,1-.51,1A2.46,2.46,0,0,1,447.67,465.92Zm-2.77-1.52a8.37,8.37,0,0,0,2.25,1.22,2.41,2.41,0,0,0,1.83-.34.82.82,0,0,0,.41-.75c-.07-.31-.42-.48-.63-.56a4,4,0,0,0-2.05-.11A10.72,10.72,0,0,0,444.9,464.4Z" style="fill: rgb(64, 123, 255); transform-origin: 447.024px 464.724px;" id="elww7h5r0vnd" class="animable"></path><path d="M444.51,464.52l0-.23a9.67,9.67,0,0,1,.12-2.9,2.66,2.66,0,0,1,1.38-1.53,1.06,1.06,0,0,1,1.12.09,1.14,1.14,0,0,1,.23,1.05,4.25,4.25,0,0,1-1,1.93,12.27,12.27,0,0,1-1.62,1.45Zm2-4.52a1.29,1.29,0,0,0-.45.09,2.38,2.38,0,0,0-1.24,1.39,8.7,8.7,0,0,0-.13,2.55,11.15,11.15,0,0,0,1.4-1.26,3.94,3.94,0,0,0,1-1.81.94.94,0,0,0-.15-.83A.57.57,0,0,0,446.54,460Z" style="fill: rgb(64, 123, 255); transform-origin: 445.928px 462.13px;" id="el17keh5remtj" class="animable"></path><path d="M463.28,347.41s3.6,32.07,4.56,33.79C471.1,387,492.66,397,492.66,397l11-2.3,7.88,6.58-5.2,4.07L500.25,403a56.81,56.81,0,0,1-10.08.89c-5.68,0-33.07-6.94-37.64-14.58s-6.67-43-6.67-43Z" style="fill: rgb(185, 121, 100); transform-origin: 478.7px 375.83px;" id="elv3zacqr9gjj" class="animable"></path><path d="M445.39,360s-8.45-28.16,2.08-36,18.9,30.9,18.9,30.9Z" style="fill: rgb(64, 123, 255); transform-origin: 454.276px 341.476px;" id="eljrwcgzpd11" class="animable"></path><g id="elxyibaulqu7s"><path d="M445.39,360s-8.45-28.16,2.08-36,18.9,30.9,18.9,30.9Z" style="fill: rgb(255, 255, 255); opacity: 0.5; transform-origin: 454.276px 341.476px;" class="animable"></path></g><path d="M452.06,411.53,452,374.2l-.81-51.11-22.05-4.79-19.19-.84-21.85,10L387.57,340s2.5,57.59,2.36,59.33c-.17,2.12-6.36,15.48-6.36,15.48C411.16,421.09,452.49,413.43,452.06,411.53Z" style="fill: rgb(64, 123, 255); transform-origin: 417.817px 367.35px;" id="el8kpfan1mfpk" class="animable"></path><g id="elmpr50nx83l"><path d="M452.06,411.53,452,374.2l-.81-51.11-22.05-4.79-19.19-.84-21.85,10L387.57,340s2.5,57.59,2.36,59.33c-.17,2.12-6.36,15.48-6.36,15.48C411.16,421.09,452.49,413.43,452.06,411.53Z" style="fill: rgb(255, 255, 255); opacity: 0.5; transform-origin: 417.817px 367.35px;" class="animable"></path></g><path d="M450,287.38a2.55,2.55,0,0,0,.23-5l-5.66-.57.81,10.89a5.84,5.84,0,0,0,3.34,0,3.6,3.6,0,0,0,2.33-2.28A2.65,2.65,0,0,0,450,287.38Z" style="fill: rgb(38, 50, 56); transform-origin: 448.373px 287.377px;" id="el5eipa40fksk" class="animable"></path><path d="M428.42,308.32,416.27,293s0,0,0,.05c0,1.45-.05,3.1-.17,4.86,0,0-1.3-.62-1.31-.61-.52,7.94-3.66,21.49-3.52,22.67L424,326.34h2.57l.21-7.49C425.52,315.61,426.73,311.84,428.42,308.32Z" style="fill: rgb(185, 121, 100); transform-origin: 419.843px 309.67px;" id="el8a5fd2j80rp" class="animable"></path><g id="elb4cirusj2eh"><path d="M426.6,313.47l-7.69-6.07c-.19,3.09,1.43,8,7.59,10.47A9,9,0,0,1,426.6,313.47Z" style="opacity: 0.2; transform-origin: 422.748px 312.635px;" class="animable"></path></g><path d="M418.86,285.45c-2.52,10.29-3.46,15.23.05,21.95,5.29,10.11,18.2,10.2,23.75.84,5-8.42,8.28-23.83-.41-30.83A14.61,14.61,0,0,0,418.86,285.45Z" style="fill: rgb(185, 121, 100); transform-origin: 432.128px 294.651px;" id="elye6cm5u4vrb" class="animable"></path><path d="M421,271.48c3.11-5.13,11.26-6,14.28-1.91.45.61-4.42.75-3.86.72l-2.86,8.11c-.56-.32-1.95,0-3.14,1.69,0,0-1.83,11.15-7.61,14.27C412.17,286.53,412.81,271.5,421,271.48Z" style="fill: rgb(38, 50, 56); transform-origin: 424.714px 280.675px;" id="el10tvzeb6au3p" class="animable"></path><path d="M412.26,292.63a9.92,9.92,0,0,0,3,7c2.55,2.43,5.5.55,6.21-2.72.63-2.94.06-7.76-3.17-8.95S412.26,289.37,412.26,292.63Z" style="fill: rgb(185, 121, 100); transform-origin: 416.978px 294.2px;" id="elrfgk1b3j8u8" class="animable"></path><path d="M432.79,294.07c-.32,1,0,2,.65,2.24s1.49-.47,1.81-1.5,0-2-.65-2.24S433.11,293,432.79,294.07Z" style="fill: rgb(38, 50, 56); transform-origin: 434.02px 294.439px;" id="eldwjx7bf0tqk" class="animable"></path><path d="M442.92,297.36c-.32,1,0,2,.65,2.24s1.49-.47,1.81-1.5,0-2-.65-2.24S443.24,296.33,442.92,297.36Z" style="fill: rgb(38, 50, 56); transform-origin: 444.15px 297.73px;" id="elxvc97hdgzrn" class="animable"></path><path d="M439.36,294.6s1.28,4.71,1.87,7.5a1.11,1.11,0,0,1-1,1.34,6,6,0,0,1-2.89-.79Z" style="fill: rgb(162, 78, 63); transform-origin: 439.297px 299.02px;" id="elig8kqz48np" class="animable"></path><path d="M431.71,287.87a.52.52,0,0,0,.51.08,4.08,4.08,0,0,1,3.66.29.52.52,0,0,0,.71-.11.5.5,0,0,0-.11-.71,5.11,5.11,0,0,0-4.62-.41.5.5,0,0,0-.3.65A.47.47,0,0,0,431.71,287.87Z" style="fill: rgb(38, 50, 56); transform-origin: 434.109px 287.487px;" id="elsyi9t7j12il" class="animable"></path><path d="M448.3,292.66a.47.47,0,0,0,.27-.12.51.51,0,0,0,0-.72,5,5,0,0,0-4.26-1.74.52.52,0,0,0-.42.58.5.5,0,0,0,.57.43,3.86,3.86,0,0,1,3.35,1.41A.49.49,0,0,0,448.3,292.66Z" style="fill: rgb(38, 50, 56); transform-origin: 446.302px 291.367px;" id="elow1oz4uzsg" class="animable"></path><path d="M431.94,304.76a7.21,7.21,0,0,0,1.13.76.3.3,0,0,0,.38-.08h0a.31.31,0,0,0-.13-.38,7.35,7.35,0,0,1-3.8-5.45.27.27,0,0,0-.28-.25.23.23,0,0,0-.25.22v.07A7.5,7.5,0,0,0,431.94,304.76Z" style="fill: rgb(38, 50, 56); transform-origin: 431.231px 302.458px;" id="elbs81qi6543n" class="animable"></path><path d="M455.12,279.71c-.69-2.06-3.14-2.92-5.3-3.07a2.74,2.74,0,0,0,2.43-2.76,4.55,4.55,0,0,0-1.91-3.44,7.08,7.08,0,0,0-6.87-1,1,1,0,0,0,.44-1.22,2.29,2.29,0,0,0-.87-1.1,6.37,6.37,0,0,0-7.94.4,5.26,5.26,0,0,0-6.13-3.47c-2.45.64-7.07,1.13-7.78,7.4a5.09,5.09,0,1,0-6,8.22,2.39,2.39,0,0,0-3,1.38,3.43,3.43,0,0,0,.68,3.4,6.22,6.22,0,0,0,3.09,1.83,6,6,0,0,0,3.38.1,3.26,3.26,0,0,0,2.29-2.34,2.44,2.44,0,0,0,2.61,1.93,2.86,2.86,0,0,0,2.38-2.33,3.38,3.38,0,0,0-1.32-3.14,3.07,3.07,0,0,0,4.71-.93,9.64,9.64,0,0,0,4.41,4.59c2,.85,4.61.49,5.88-1.26a10.38,10.38,0,0,0,2.14,2,3.47,3.47,0,0,0,2.84.51,2.1,2.1,0,0,0,1.48-2.27,6.09,6.09,0,0,0,5.69,1.32A4,4,0,0,0,455.12,279.71Z" style="fill: rgb(38, 50, 56); transform-origin: 433.617px 275.25px;" id="el5l5ds28sxdo" class="animable"></path><path d="M420.81,325.73s5.35,4.77,8.09-1.4l1.43,1.12s-.14,4.58-2.74,6.11c.64,2.55,11.51,39.57,13.45,58.23l-3,7.57-7.89-6.23s-3.84-32-5.15-59.22a11.06,11.06,0,0,1-6.82-6.46Z" style="fill: rgb(64, 123, 255); transform-origin: 429.61px 360.845px;" id="elvi5d4tehrrk" class="animable"></path><g id="elpzcuqjvyjee"><polygon points="427.71 326.35 432.36 329.96 433.12 319.13 431.64 318.81 430.42 326.11 428.21 324.83 427.71 326.35" style="opacity: 0.2; transform-origin: 430.415px 324.385px;" class="animable"></polygon></g><g id="elt1eq0roynf"><path d="M405.35,319.55c-.08,0,10.93,13.46,10.93,13.46l3.74-2.85,2.57-2.17.66-.82-14.57-10.12a21.05,21.05,0,0,1-2.15,2A6.88,6.88,0,0,0,405.35,319.55Z" style="opacity: 0.2; transform-origin: 414.3px 325.03px;" class="animable"></path></g><polygon points="406.13 319.32 411.46 314.57 426.03 328.21 422.22 326.86 416.67 331.13 406.13 319.32" style="fill: rgb(64, 123, 255); transform-origin: 416.08px 322.85px;" id="elnphur4cgern" class="animable"></polygon><path d="M426,328.21c-.32-.62.31-12.77.31-12.77l6,3.29c-.28-.06-.46,10.24-.63,10.24s-3.42-3.51-3.42-3.51Z" style="fill: rgb(64, 123, 255); transform-origin: 429.11px 322.205px;" id="elpnl3e7i7md" class="animable"></path><g id="ela4ebx522tib"><polygon points="451.67 358.49 450.54 334.42 455.92 357.46 451.67 358.49" style="opacity: 0.2; transform-origin: 453.23px 346.455px;" class="animable"></polygon></g><g id="eldbm277upa2"><path d="M405,362c.67-.13,4.11-1.26,4.11-1.26l-7.64-21.27L412,363l-6.31,2.51Z" style="opacity: 0.2; transform-origin: 406.735px 352.49px;" class="animable"></path></g><g id="el7loh2yz87pi"><polygon points="406.13 319.32 411.46 314.57 426.03 328.21 422.22 326.86 416.67 331.13 406.13 319.32" style="fill: rgb(255, 255, 255); opacity: 0.5; transform-origin: 416.08px 322.85px;" class="animable"></polygon></g><g id="el4tfa5ovdcnl"><path d="M426,328.21c-.32-.62.31-12.77.31-12.77l6,3.29c-.28-.06-.46,10.24-.63,10.24s-3.42-3.51-3.42-3.51Z" style="fill: rgb(255, 255, 255); opacity: 0.5; transform-origin: 429.11px 322.205px;" class="animable"></path></g><g id="elzmtdidvmd1m"><polygon points="434.29 348.12 436.74 360.13 443.86 362.7 448.67 358.5 447.79 347.16 434.29 348.12" style="fill: rgb(255, 255, 255); opacity: 0.3; transform-origin: 441.48px 354.93px;" class="animable"></polygon></g><path d="M426.89,327.17l-2.25.55s-.09.14,0,0-1.23,4.27-1.23,4.27c.36.32,1.57,2.41,1.71,2.38s3.14-.31,3.14-.31l1.08-3.17S426.88,327.14,426.89,327.17Z" style="fill: rgb(64, 123, 255); transform-origin: 426.375px 330.77px;" id="elgyo25u3t5ne" class="animable"></path><g id="elpgnfj6gdhf"><path d="M426.89,327.17l-2.25.55s-.09.14,0,0-1.23,4.27-1.23,4.27c.36.32,1.57,2.41,1.71,2.38s3.14-.31,3.14-.31l1.08-3.17S426.88,327.14,426.89,327.17Z" style="opacity: 0.2; transform-origin: 426.375px 330.77px;" class="animable"></path></g><path d="M402,344.36s5.35,35.6,8.44,38.93c5.22,5.63,31.09,20.55,31.09,20.55l12.92-4.53a2.89,2.89,0,0,1,2.64.43l8.83,6.74-.84.71a1.24,1.24,0,0,1-1.33.16l-1.37-.69,1.54,1.51-.49.41a2,2,0,0,1-1.77.38l-3.95-1,3.64,2.42a3.26,3.26,0,0,1-3,.63l-5.78-1.65a73.39,73.39,0,0,1-12,1.72c-6.8.42-38.91-10.8-44.9-19s-12.15-42.32-12.15-42.32Z" style="fill: rgb(185, 121, 100); transform-origin: 424.72px 377.75px;" id="eld0hv4lixx2" class="animable"></path><path d="M384.93,368.05s-8-32.27,2.53-40.09,21,33,21,33Z" style="fill: rgb(64, 123, 255); transform-origin: 395.24px 347.507px;" id="elk5nbs3mbj29" class="animable"></path><g id="elp7m8rl39dvf"><path d="M384.93,368.05s-8-32.27,2.53-40.09,21,33,21,33Z" style="fill: rgb(255, 255, 255); opacity: 0.5; transform-origin: 395.24px 347.507px;" class="animable"></path></g><path d="M471.11,409.06H430.18c0,1.57,1.75,2.83,3.89,2.82h66.68c2.13,0,3.84-1.28,3.83-2.83Z" style="fill: rgb(38, 50, 56); transform-origin: 467.38px 410.465px;" id="elbo6uagil5nt" class="animable"></path><path d="M501.36,411.73H464a1.07,1.07,0,0,1-1.16-1,.71.71,0,0,1,.06-.28l16.64-38.14a3.25,3.25,0,0,1,3.09-1.84H520a1,1,0,0,1,1.14.92.67.67,0,0,1-.07.31l-16.63,38.14A3.28,3.28,0,0,1,501.36,411.73Z" style="fill: rgb(38, 50, 56); transform-origin: 491.99px 391.097px;" id="el1d7sbnf6o75" class="animable"></path><g id="elp2gfbt20oj"><path d="M520,370.52H482.6a3.25,3.25,0,0,0-3.09,1.84l-16,36.7H430.18c0,1.57,1.75,2.83,3.89,2.82h66.68a5,5,0,0,0,1.85-.37,3,3,0,0,0,1.86-1.63l16.63-38.14a.67.67,0,0,0,.07-.31A1,1,0,0,0,520,370.52Z" style="fill: rgb(255, 255, 255); isolation: isolate; opacity: 0.7; transform-origin: 475.67px 391.193px;" class="animable"></path></g><path d="M497.54,390.83c-.8,1.83-2.44,3.08-3.66,2.83s-1.55-1.93-.77-3.76,2.45-3.07,3.67-2.81S498.36,389,497.54,390.83Z" style="fill: rgb(255, 255, 255); transform-origin: 495.335px 390.374px;" id="el3zy85bjgagi" class="animable"></path><g id="elk0qurd70o08"><g style="opacity: 0.3; transform-origin: 473.06px 389.788px;" class="animable"><path d="M479.51,372.36l-16,36.7h1.73l17.37-38.54A3.25,3.25,0,0,0,479.51,372.36Z" id="elgsnjthsx1o4" class="animable" style="transform-origin: 473.06px 389.788px;"></path></g></g><polygon points="481.44 451.36 505.52 455.24 509.39 445.3 484.07 437.4 481.44 451.36" style="fill: rgb(185, 121, 100); transform-origin: 495.415px 446.32px;" id="el0qqmvt6mrfyj" class="animable"></polygon><path d="M516.23,460.25l3.26-6.73a2.81,2.81,0,0,1-.28-2.69,9.43,9.43,0,0,1,2.39-2.15l9.08-18.43a8.37,8.37,0,0,0-1.9-.69,8.82,8.82,0,0,0-2.13,0c-2.22.29-4,2-5.21,3.34-2.08,2.22-9.28,7.71-9.28,7.71a9.89,9.89,0,0,1-5.21,1.2,4.38,4.38,0,0,0-3.69,1.35c-1,1.53-.49,2.9.91,3.87l1.64,1.13a3.43,3.43,0,0,1-2.3,4s-3.73,2.46-1.89,3.12c1.05.37,5.8,1.87,9.51,3.16l2.41.84h0Z" style="fill: rgb(38, 50, 56); transform-origin: 515.895px 444.873px;" id="elcqhmmaeppjc" class="animable"></path><path d="M515.87,437.59a.26.26,0,0,0-.17.29,3.19,3.19,0,0,0,.63,1.62c.19.26.63,0,.43-.28a2.91,2.91,0,0,1-.55-1.43.24.24,0,0,0-.33-.21Z" style="fill: rgb(64, 123, 255); transform-origin: 516.254px 438.585px;" id="el3qvuf2wme8e" class="animable"></path><path d="M514.4,438.63a.3.3,0,0,0-.17.3,3.32,3.32,0,0,0,.63,1.62c.19.25.63,0,.44-.29a2.86,2.86,0,0,1-.56-1.42.24.24,0,0,0-.33-.21Z" style="fill: rgb(64, 123, 255); transform-origin: 514.788px 439.632px;" id="elcq5bwpjji5r" class="animable"></path><path d="M513,439.75a.26.26,0,0,0-.17.29,3.27,3.27,0,0,0,.62,1.62c.19.26.64,0,.44-.28a3,3,0,0,1-.56-1.43.24.24,0,0,0-.33-.21Z" style="fill: rgb(64, 123, 255); transform-origin: 513.383px 440.745px;" id="elzg91a2l74g9" class="animable"></path><g id="eld4pc5shtrn"><path d="M519.21,450.83a9.43,9.43,0,0,1,2.39-2.15l9.08-18.43a8.37,8.37,0,0,0-1.9-.69,9.5,9.5,0,0,0-1-.05l-14.6,29.66.4.14h0l2.69.94,3.26-6.73A2.81,2.81,0,0,1,519.21,450.83Z" style="fill: rgb(255, 255, 255); isolation: isolate; opacity: 0.2; transform-origin: 521.93px 444.88px;" class="animable"></path></g><path d="M513.27,440.22l-.22-.08a12.88,12.88,0,0,1-2-.9,4.31,4.31,0,0,1-1.55-1.54,1.17,1.17,0,0,1-.1-1.08,1.07,1.07,0,0,1,1.05-.41,2.63,2.63,0,0,1,1.77,1.06,9.61,9.61,0,0,1,1,2.72Zm-2.95-3.77a.75.75,0,0,0-.67.3,1,1,0,0,0,.1.83,4,4,0,0,0,1.46,1.44,11.07,11.07,0,0,0,1.71.8,8.26,8.26,0,0,0-.87-2.4,2.38,2.38,0,0,0-1.59-1Z" style="fill: rgb(64, 123, 255); transform-origin: 511.291px 438.206px;" id="elyxr861gkf8j" class="animable"></path><path d="M509.82,442.6a2.17,2.17,0,0,1-.72-.11,1.06,1.06,0,0,1-.78-.81,1.1,1.1,0,0,1,.53-.93,4.17,4.17,0,0,1,2-.77,12.11,12.11,0,0,1,2.17,0l.23,0-.14.18a9.57,9.57,0,0,1-2,2.09A2.83,2.83,0,0,1,509.82,442.6Zm2.05-2.42a7.4,7.4,0,0,0-.94.05A4,4,0,0,0,509,441c-.17.13-.46.4-.43.71s.33.5.61.59A2.39,2.39,0,0,0,511,442a8.4,8.4,0,0,0,1.79-1.83C512.5,440.19,512.19,440.18,511.87,440.18Z" style="fill: rgb(64, 123, 255); transform-origin: 510.785px 441.266px;" id="elujxzilm04sr" class="animable"></path><path d="M390.93,440.38c-5.2-8.27-16.94-30.7,6.89-35.06s103.43,33.46,103.43,33.46l-5,15.19-74.1-11.68s10.14,13.54-2.16,12.92C402.07,453.44,397.77,449.16,390.93,440.38Z" style="fill: rgb(38, 50, 56); transform-origin: 442.333px 430.1px;" id="elp9gtwq2rsd" class="animable"></path><g id="elpaicvys6z4"><path d="M423.87,442.7l-20.33-6.4s17,10.44,23.31,11.68Z" style="isolation: isolate; opacity: 0.7; transform-origin: 415.195px 442.14px;" class="animable"></path></g></g><defs>     <filter id="active" height="200%">         <feMorphology in="SourceAlpha" result="DILATED" operator="dilate" radius="2"></feMorphology>                <feFlood flood-color="#32DFEC" flood-opacity="1" result="PINK"></feFlood>        <feComposite in="PINK" in2="DILATED" operator="in" result="OUTLINE"></feComposite>        <feMerge>            <feMergeNode in="OUTLINE"></feMergeNode>            <feMergeNode in="SourceGraphic"></feMergeNode>        </feMerge>    </filter>    <filter id="hover" height="200%">        <feMorphology in="SourceAlpha" result="DILATED" operator="dilate" radius="2"></feMorphology>                <feFlood flood-color="#ff0000" flood-opacity="0.5" result="PINK"></feFlood>        <feComposite in="PINK" in2="DILATED" operator="in" result="OUTLINE"></feComposite>        <feMerge>            <feMergeNode in="OUTLINE"></feMergeNode>            <feMergeNode in="SourceGraphic"></feMergeNode>        </feMerge>            <feColorMatrix type="matrix" values="0   0   0   0   0                0   1   0   0   0                0   0   0   0   0                0   0   0   1   0 "></feColorMatrix>    </filter></defs></svg>